<?xml version="1.0" encoding="utf-8"?>
<!-- Generator: Adobe Illustrator 28.2.0, SVG Export Plug-In . SVG Version: 6.00 Build 0)  -->
<svg version="1.1" id="Layer_2_00000178892346808514945870000004332452859575868800_"
	 xmlns="http://www.w3.org/2000/svg" xmlns:xlink="http://www.w3.org/1999/xlink" x="0px" y="0px" viewBox="0 0 41.5 21.8"
	 style="enable-background:new 0 0 41.5 21.8;" xml:space="preserve">
<style type="text/css">
	.st0{opacity:0.25;fill:#01DDC6;}
	.st1{fill:#FFFFFF;}
</style>
<path class="st0" d="M30.6,1.3c5.8,0,10.4,5.1,9.6,11.1c-0.7,4.8-5,8.2-9.9,8.2c-5.3,0-13.8,0-19.1,0c-4.8,0-9.2-3.4-9.9-8.2
	c-0.9-6,3.7-11.1,9.6-11.1H30.6"/>
<g>
	<path class="st1" d="M9.6,17.6H8.2l0-13.5h1.4l0,3.9c0,0,0,0,0,0.1c0,0,0,0,0,0.1L9.2,8.7l0.1,0l0,0C9.5,8.5,9.7,8.3,9.9,8
		c0.4-0.4,1-0.6,1.7-0.6c0.1,0,0.1,0,0.2,0c0.9,0,1.5,0.4,1.8,1.1s0.4,2,0.4,4.1c0,2.1-0.1,3.5-0.4,4.1s-0.8,1-1.8,1
		c0,0-0.1,0-0.1,0c-0.8,0-1.3-0.2-1.7-0.7c-0.2-0.2-0.4-0.5-0.5-0.7l0,0l-0.1,0l0.3,0.6c0,0,0,0.1,0,0.1V17.6z M9.9,16.2
		c0.2,0.3,0.6,0.5,1.2,0.5c0.6,0,0.9-0.1,1.1-0.4c0.2-0.3,0.2-1.5,0.2-3.7c0-2.1-0.1-3.3-0.2-3.7c-0.2-0.3-0.5-0.5-1.1-0.5
		c-0.5,0-0.9,0.2-1.2,0.5c-0.2,0.3-0.3,0.7-0.4,1.3v4.7C9.6,15.5,9.7,15.9,9.9,16.2z"/>
	<path class="st1" d="M19.2,16.4l-0.1,0c-0.1,0.2-0.2,0.4-0.3,0.6c-0.1,0.2-0.3,0.3-0.4,0.4c-0.2,0.1-0.4,0.2-0.6,0.2
		c-0.2,0-0.5,0.1-0.8,0.1c-0.2,0-0.4,0-0.7-0.1c-0.2,0-0.4-0.1-0.6-0.2c-0.2-0.1-0.3-0.3-0.5-0.4c-0.1-0.2-0.2-0.4-0.3-0.8
		c-0.1-0.3-0.1-0.8-0.1-1.5c0-0.5,0-0.9,0.1-1.2s0.2-0.6,0.3-0.8c0.1-0.2,0.3-0.4,0.5-0.6s0.4-0.2,0.7-0.3c0.3-0.1,0.5-0.1,0.8-0.1
		h1.8V11c0-0.9,0-1.6-0.1-1.9s-0.2-0.5-0.4-0.6c-0.2-0.1-0.5-0.1-0.9-0.1c-0.4,0-0.7,0-0.8,0.1c-0.2,0.1-0.3,0.3-0.4,0.6
		c-0.1,0.3-0.1,0.9-0.1,1.7h-1.4c0-0.9,0.1-1.5,0.2-1.9s0.3-0.7,0.6-0.9c0.2-0.2,0.5-0.3,0.8-0.4s0.7-0.1,1.2-0.1
		c0.7,0,1.2,0.1,1.6,0.2c0.4,0.2,0.6,0.5,0.9,0.9s0.3,1.3,0.3,2.5v6.6h-1.4v-0.5c0-0.1,0-0.2,0.1-0.3L19.2,16.4z M17.3,16.7
		c0.2,0,0.4,0,0.6-0.1s0.3-0.1,0.5-0.2c0.2-0.1,0.3-0.2,0.4-0.3c0.1-0.1,0.1-0.3,0.2-0.4l0-3.1h-1.6c-0.2,0-0.3,0-0.5,0.1
		c-0.1,0.1-0.3,0.2-0.4,0.3s-0.2,0.4-0.3,0.6c-0.1,0.3-0.1,0.6-0.1,1.1c0,0.6,0,1,0.1,1.3s0.1,0.5,0.3,0.6c0.1,0.1,0.2,0.2,0.4,0.2
		S17.1,16.7,17.3,16.7z"/>
	<path class="st1" d="M24,17.7c-1.1,0-1.8-0.3-2.3-0.8c-0.4-0.5-0.6-2-0.6-4.3c0-2.3,0.2-3.7,0.6-4.3C22.2,7.7,23,7.4,24,7.4
		c1.1,0,1.8,0.3,2.2,0.8s0.6,1.7,0.6,3.3h-1.4c0-1.4-0.1-2.3-0.3-2.7C25,8.6,24.6,8.4,24,8.4c-0.6,0-1,0.2-1.2,0.5
		c-0.2,0.4-0.3,1.6-0.3,3.6c0,2.1,0.1,3.3,0.3,3.6s0.6,0.5,1.2,0.5c0.6,0,1-0.2,1.1-0.5s0.2-1.2,0.3-2.7h1.4c0,1.7-0.2,2.8-0.6,3.3
		C25.8,17.4,25.1,17.7,24,17.7z"/>
	<path class="st1" d="M28.8,12.2l0.1,0l2.9-4.7h1.5l-2.2,3.7l2.3,6.5h-1.4l-1.8-5.2l-0.9,1.4v3.8h-1.4V4.3h1.4v6.9c0,0,0,0.1,0,0.1
		L28.8,12.2z"/>
</g>
<path class="st1" d="M30.6,1.3c5.3,0,9.7,4.3,9.7,9.7c0,5.3-4.3,9.7-9.7,9.7H10.9c-5.3,0-9.7-4.3-9.7-9.7c0-5.3,4.3-9.7,9.7-9.7
	H30.6 M30.6,0H10.9C4.9,0,0,4.9,0,10.9v0c0,6,4.9,10.9,10.9,10.9h19.7c6,0,10.9-4.9,10.9-10.9v0C41.5,4.9,36.6,0,30.6,0L30.6,0z"/>
</svg>
