<?xml version="1.0" encoding="UTF-8"?>
<svg id="Layer_2" data-name="Layer 2" xmlns="http://www.w3.org/2000/svg" viewBox="0 0 17.94 18">
  <defs>
    <style>
      .cls-1 {
        fill: #00dec2;
      }
    </style>
  </defs>
  <g id="Layer_1-2" data-name="Layer 1">
    <path class="cls-1" d="M9.5,17.98c9.84-.56,11.67-14.42,2.33-17.53C9.25-.41,6.29-.02,4.03,1.5h0C1.91,2.91.49,5.15.11,7.67h0c-.89,5.55,3.77,10.68,9.39,10.32h0ZM16.78,12.28c-.32.76-.75,1.47-1.28,2.1-.04-.22.07-.48-.09-.69-.17-.32-.32-.66-.49-.98-.06-.12-.05-.19.05-.27,1.02-.89.11-.42.21-1.69,0-.07-.03-.14-.09-.17-.48-.31-1.11-.41-1.61-.07-.62.29-1.51.07-1.71-.64-.18-.47-.16-.95-.16-1.44.03-.26.39-.3.33-.61.01-.38-.11-.79.25-1.04.06-.05.13-.07.21-.05.33.04.67-.04.94-.22.3-.19.66-.07.99-.11.16-.01.27.03.37.16.19.24.48.31.73.45.08.05.13-.01.17-.06.21-.27.53-.36.81-.51.15-.09.46.25.72.26.52,1.82.4,3.84-.34,5.58h0ZM16.66,5.44c-.31.04-.1-.25-.26-.41-.16-.14-.31-.3-.46-.46-.08-.08-.12-.09-.21,0-.23.23-.22.21.05.48.32.35.56.34-.02.59-.13.06-.25.19-.4,0-.09-.12-.2-.2-.19-.38.02-.28-.19-.48-.29-.72-.03-.07-.08-.02-.11.01-.21.27-.52.37-.8.52-.49.43-.38.38-1.03.36-.06,0-.08-.07-.1-.11-.33-.53-.26-.67.08-1.17.12-.07.67.01.78.12.05.05.09.11.15.19.05-.21.03-.37.03-.52.09-.64.63-.35,1.01-.49.18-.14.25-.21.22-.27.64.67,1.16,1.43,1.55,2.27h0ZM15.05,3.12c-.26-.17-.84-.35-.86-.77.3.24.59.49.86.77ZM3.05,3.03c.49-.49,1.03-.91,1.62-1.27.2.1.34.48.6.35.27-.14.55-.25.75-.5.11-.13.3-.03.44-.07.56-.08.71.56.92.94-.02.02-.03.03-.04.03-.49-.05-.93.1-1.37.27-.14.06-.26.06-.35-.08-.11-.17-.26-.18-.43-.1-.17.12-.76.14-.72.37.04.22-.13.6.26.52.19-.06.34.48.46.17.24-.99,1.27-.13,2.06-.76.29-.17.53.4.64.6.09.19.15.41.45.34-.19.19-.38.38-.57.57-.05.06-.1.04-.16.02-.24-.08-.47-.15-.71-.24-.11-.04-.17-.04-.16.11.19,1.03-.69.04-1.3.81-.76.77-.17,1.41-1.22,2.21-.06.06-.11.06-.18.02-.45-.32-1.48-.5-1.82.03,0,.03,0,.07.01.09.18.29.2.78.54.29.1-.09.22-.06.33-.04.11.02.06.14.05.2.02.27.41.32.33.63-.04.22.24.1.36.14.2.03.35-.04.48-.19.1-.12.65-.2.78-.12.1.1.14.26.22.39.12.24.13.25.3.06.41-.32.98-.07,1.37.16.3.17.2.78.66.69.09-.02.13.05.18.11.33.4.86.35,1.06.91.13.23.11.43,0,.66-.08.43-.29.74-.73.86-.35.13.24.7-.56.93-.21.05-.23.2-.21.39.09.48-.03.84-.56.97-.16.05-.13.26-.2.38-.36.66-.03,1.15.43,1.61-.41.02-.85.07-.99-.37-.18-.51-.33-1.02-.59-1.5-.09-.16-.03-.35-.03-.52-.06-.71-.79-1.24-.65-2,.05-.38-.49.16-1.05-.53-.19-.22-.62-.76-.55-1.03.15-.38.17-.84.52-1.11.15-.12.16-.48-.12-.41-.72.12-.57-.42-.99-.32-.29.03-.49-.06-.72-.26-.67-.61-.86-.16-1.24-.61.26-1.81,1.09-3.48,2.39-4.77h0Z"/>
  </g>
</svg>